<svg xmlns="http://www.w3.org/2000/svg" viewBox="0 0 218.38 193.75"><g id="Layer_2" data-name="Layer 2"><g id="Layer_1-2" data-name="Layer 1"><path d="M109.19,0C48.89,0,0,43.37,0,96.87c0,49,41.09,89.58,94.4,96v-5.53a91.66,91.66,0,1,1,14.79,1.2l-1.27,0V165.59q3-.15,6-.54c74.73-9.84,84.29-82.74,48.5-110.32-13.61-10.49-37.32-12.29-54.5-6.27V37.34a56.45,56.45,0,0,1,44.89-3.8c.24.08.46.17.72.25s.44-.11.27-.26a13.51,13.51,0,0,0-2.13-1.08c-13.9-5.5-29.6-5.1-43.75.17V13.91c-2.28.06-4.53.2-6.76.44C61.5,18.71,28.68,52.36,29.31,94c.64,42.62,35.13,70.22,71.85,71.65v27.86c2.23.15,4.49.22,6.76.25l1.27,0c60.31,0,109.19-43.38,109.19-96.88S169.5,0,109.19,0ZM124,62.73c26.72,2.9,42.2,32.31,29.37,58C147,133.46,129.84,147.13,107.92,149V62.85A64.77,64.77,0,0,1,124,62.73ZM101.16,51.21a82.46,82.46,0,0,0-16.5,10.22c-.26.2-.48,0-.32-.26A57.26,57.26,0,0,1,94.54,47.3a58.69,58.69,0,0,1,6.62-5.68ZM70.58,140.33C32.91,119.4,32.68,77.65,52.85,47.25c10.08-15.19,27.58-25.87,48.31-31v19.3a63.69,63.69,0,0,0-34.7,51.59.4.4,0,0,0,.71.29A108,108,0,0,1,79,76.19a60.93,60.93,0,0,1,22.19-11.91v84.86A66.69,66.69,0,0,1,70.58,140.33Z"/></g></g></svg>