<svg width="52" height="52" viewBox="0 0 52 52" fill="none" xmlns="http://www.w3.org/2000/svg">
<path fill-rule="evenodd" clip-rule="evenodd" d="M17.433 27.3094C18.5849 27.3094 19.7109 26.9678 20.6686 26.3279C21.6264 25.6879 22.3729 24.7783 22.8137 23.7141C23.2545 22.6499 23.3698 21.4789 23.1451 20.3492C22.9204 19.2194 22.3657 18.1817 21.5512 17.3672C20.7367 16.5527 19.699 15.998 18.5692 15.7733C17.4395 15.5486 16.2685 15.6639 15.2043 16.1047C14.1401 16.5455 13.2305 17.292 12.5905 18.2497C11.9506 19.2075 11.609 20.3335 11.609 21.4854C11.6115 23.0292 12.2259 24.5092 13.3176 25.6008C14.4092 26.6925 15.8891 27.3069 17.433 27.3094V27.3094ZM20.7756 21.4854C20.7756 22.1464 20.5796 22.7925 20.2124 23.3421C19.8452 23.8916 19.3232 24.32 18.7126 24.573C18.1019 24.8259 17.43 24.8922 16.7817 24.7632C16.1334 24.6343 15.5379 24.3161 15.0705 23.8487C14.6031 23.3814 14.2848 22.786 14.1558 22.1377C14.0268 21.4894 14.0929 20.8175 14.3457 20.2068C14.5986 19.5961 15.0269 19.0741 15.5764 18.7068C16.1259 18.3395 16.772 18.1434 17.433 18.1433C18.3188 18.1443 19.168 18.4964 19.7946 19.1225C20.4211 19.7486 20.7739 20.5975 20.7756 21.4833V21.4854Z" fill="#8FD558"/>
<path fill-rule="evenodd" clip-rule="evenodd" d="M17.433 13.2881C17.1038 13.2881 16.7881 13.1573 16.5553 12.9245C16.3226 12.6918 16.1918 12.376 16.1918 12.0468V9.308C16.1884 9.14283 16.218 8.97864 16.2789 8.82505C16.3398 8.67147 16.4307 8.53157 16.5463 8.41357C16.6619 8.29556 16.7999 8.2018 16.9522 8.1378C17.1045 8.0738 17.2681 8.04083 17.4333 8.04083C17.5985 8.04083 17.762 8.0738 17.9144 8.1378C18.0667 8.2018 18.2047 8.29556 18.3203 8.41357C18.4359 8.53157 18.5268 8.67147 18.5877 8.82505C18.6486 8.97864 18.6782 9.14283 18.6748 9.308V12.0489C18.6741 12.3778 18.543 12.693 18.3102 12.9253C18.0774 13.1576 17.7619 13.2881 17.433 13.2881Z" fill="#8FD558"/>
<path fill-rule="evenodd" clip-rule="evenodd" d="M18.6748 30.9208V33.6601C18.6782 33.8253 18.6486 33.9895 18.5877 34.1431C18.5268 34.2967 18.4359 34.4366 18.3203 34.5546C18.2047 34.6726 18.0667 34.7663 17.9144 34.8303C17.762 34.8943 17.5985 34.9273 17.4333 34.9273C17.2681 34.9273 17.1045 34.8943 16.9522 34.8303C16.7999 34.7663 16.6619 34.6726 16.5463 34.5546C16.4307 34.4366 16.3398 34.2967 16.2789 34.1431C16.218 33.9895 16.1884 33.8253 16.1918 33.6601V30.9208C16.1884 30.7556 16.218 30.5914 16.2789 30.4378C16.3398 30.2842 16.4307 30.1443 16.5463 30.0263C16.6619 29.9083 16.7999 29.8146 16.9522 29.7506C17.1045 29.6866 17.2681 29.6536 17.4333 29.6536C17.5985 29.6536 17.762 29.6866 17.9144 29.7506C18.0667 29.8146 18.2047 29.9083 18.3203 30.0263C18.4359 30.1443 18.5268 30.2842 18.5877 30.4378C18.6486 30.5914 18.6782 30.7556 18.6748 30.9208V30.9208Z" fill="#8FD558"/>
<path fill-rule="evenodd" clip-rule="evenodd" d="M9.23831 21.4833C9.23789 21.8124 9.1069 22.1279 8.87408 22.3605C8.64127 22.5931 8.32566 22.7239 7.99655 22.724H5.25615C4.93128 22.7173 4.62196 22.5836 4.39456 22.3515C4.16716 22.1194 4.03979 21.8074 4.03979 21.4825C4.03979 21.1576 4.16716 20.8456 4.39456 20.6135C4.62196 20.3814 4.93128 20.2476 5.25615 20.241H7.99551C8.15869 20.2409 8.32028 20.273 8.47107 20.3354C8.62185 20.3978 8.75886 20.4893 8.87427 20.6047C8.98968 20.72 9.08123 20.857 9.14369 21.0078C9.20616 21.1585 9.23831 21.3201 9.23831 21.4833Z" fill="#8FD558"/>
<path fill-rule="evenodd" clip-rule="evenodd" d="M29.6104 22.724H26.87C26.7048 22.7274 26.5406 22.6978 26.387 22.6369C26.2334 22.576 26.0935 22.4851 25.9755 22.3695C25.8575 22.2539 25.7638 22.1159 25.6998 21.9636C25.6358 21.8113 25.6028 21.6477 25.6028 21.4825C25.6028 21.3173 25.6358 21.1538 25.6998 21.0015C25.7638 20.8491 25.8575 20.7111 25.9755 20.5955C26.0935 20.4799 26.2334 20.389 26.387 20.3281C26.5406 20.2672 26.7048 20.2376 26.87 20.241H29.6104C29.9352 20.2477 30.2445 20.3814 30.4719 20.6135C30.6993 20.8456 30.8267 21.1576 30.8267 21.4825C30.8267 21.8074 30.6993 22.1194 30.4719 22.3515C30.2445 22.5836 29.9352 22.7174 29.6104 22.724V22.724Z" fill="#8FD558"/>
<path fill-rule="evenodd" clip-rule="evenodd" d="M11.6376 27.2782C11.753 27.3934 11.8447 27.5302 11.9072 27.6809C11.9697 27.8315 12.0019 27.9931 12.0019 28.1562C12.0019 28.3193 11.9697 28.4808 11.9072 28.6315C11.8447 28.7822 11.753 28.919 11.6376 29.0342L9.70108 30.9717C9.46769 31.2025 9.15244 31.3316 8.82421 31.3307C8.49598 31.3298 8.18144 31.199 7.94931 30.9669C7.71718 30.7349 7.58633 30.4204 7.58533 30.0921C7.58434 29.7639 7.71328 29.4486 7.944 29.2152L9.88256 27.2782C9.99768 27.1627 10.1344 27.0711 10.285 27.0086C10.4356 26.9461 10.597 26.9139 10.7601 26.9139C10.9231 26.9139 11.0845 26.9461 11.2351 27.0086C11.3857 27.0711 11.5224 27.1627 11.6376 27.2782V27.2782Z" fill="#8FD558"/>
<path fill-rule="evenodd" clip-rule="evenodd" d="M24.9855 15.6889C24.8701 15.8043 24.7331 15.8958 24.5824 15.9582C24.4317 16.0207 24.2701 16.0528 24.1069 16.0528C23.9438 16.0528 23.7822 16.0207 23.6315 15.9582C23.4807 15.8958 23.3438 15.8043 23.2284 15.6889C23.113 15.5735 23.0215 15.4366 22.9591 15.2858C22.8966 15.1351 22.8645 14.9735 22.8645 14.8104C22.8645 14.6472 22.8966 14.4857 22.9591 14.3349C23.0215 14.1842 23.113 14.0472 23.2284 13.9318L25.168 11.9954C25.4025 11.7701 25.7159 11.6457 26.041 11.6491C26.3662 11.6524 26.677 11.7831 26.9068 12.0131C27.1366 12.2431 27.2671 12.5541 27.2701 12.8792C27.2731 13.2043 27.1485 13.5177 26.923 13.7519L24.9855 15.6889Z" fill="#8FD558"/>
<path fill-rule="evenodd" clip-rule="evenodd" d="M24.984 27.2797L26.922 29.2162C27.1403 29.4517 27.2589 29.7626 27.2529 30.0837C27.247 30.4047 27.1169 30.711 26.89 30.9383C26.6632 31.1655 26.3571 31.2961 26.0361 31.3026C25.7151 31.3092 25.404 31.1911 25.168 30.9733L23.2284 29.0352C22.9957 28.8024 22.8649 28.4867 22.8649 28.1575C22.8649 27.8283 22.9957 27.5125 23.2284 27.2797C23.4612 27.0469 23.777 26.9161 24.1062 26.9161C24.4354 26.9161 24.7512 27.0469 24.984 27.2797V27.2797Z" fill="#8FD558"/>
<path fill-rule="evenodd" clip-rule="evenodd" d="M10.764 16.0529C10.6008 16.0529 10.4392 16.0208 10.2884 15.9583C10.1376 15.8959 10.0006 15.8043 9.88519 15.6889L7.94559 13.7514C7.71966 13.517 7.59478 13.2032 7.59783 12.8777C7.60088 12.5521 7.73161 12.2408 7.96189 12.0106C8.19217 11.7805 8.5036 11.6499 8.82916 11.6471C9.15471 11.6442 9.46838 11.7693 9.70267 11.9954L11.6391 13.9318C11.8126 14.1054 11.9307 14.3265 11.9787 14.5672C12.0266 14.8078 12.0023 15.0573 11.9087 15.2841C11.8151 15.511 11.6565 15.705 11.4527 15.8418C11.249 15.9787 11.0094 16.0521 10.764 16.0529V16.0529Z" fill="#8FD558"/>
<path fill-rule="evenodd" clip-rule="evenodd" d="M3.84285 41.4528C5.19868 41.4903 6.54325 41.1972 7.76053 40.599C9.2901 39.8663 10.9706 39.504 12.6662 39.5413C14.3616 39.5037 16.0421 39.8661 17.5714 40.599C18.7891 41.1969 20.134 41.4899 21.4901 41.4528C22.8461 41.4903 24.1908 41.1973 25.4083 40.599C26.9385 39.8661 28.6198 39.5037 30.3161 39.5413C32.0116 39.5038 33.6922 39.8662 35.2217 40.599C36.4391 41.1969 37.7836 41.4899 39.1394 41.4528C39.9874 41.4715 40.8335 41.3651 41.6505 41.1372C42.6978 37.9459 42.522 34.3569 41.1258 30.4673C40.6295 29.0922 40.0137 27.7632 39.2855 26.4955C38.0521 27.8059 36.2576 30.2135 37.1733 32.4012C37.2401 32.5523 37.2761 32.7151 37.2792 32.8803C37.2823 33.0454 37.2524 33.2096 37.1913 33.363C37.1302 33.5165 37.0391 33.6562 36.9234 33.7741C36.8076 33.8919 36.6695 33.9855 36.5172 34.0493C36.3648 34.1132 36.2013 34.146 36.0361 34.1458C35.8709 34.1457 35.7074 34.1126 35.5552 34.0485C35.4029 33.9844 35.265 33.8906 35.1494 33.7726C35.0339 33.6546 34.943 33.5147 34.8822 33.3611C33.6799 30.4876 35.1266 27.6962 36.5826 25.8357C35.215 26.1133 33.473 26.9401 31.7643 29.0685C31.6622 29.1957 31.5362 29.3015 31.3933 29.3799C31.2503 29.4583 31.0934 29.5078 30.9313 29.5256C30.7693 29.5434 30.6053 29.5291 30.4488 29.4835C30.2923 29.4379 30.1463 29.3619 30.0191 29.2599C29.892 29.1578 29.7862 29.0318 29.7077 28.8889C29.6293 28.746 29.5798 28.589 29.562 28.4269C29.5443 28.2649 29.5586 28.1009 29.6042 27.9444C29.6498 27.7879 29.7258 27.6419 29.8278 27.5147C32.2718 24.4722 34.878 23.5497 36.6367 23.3111C37.2373 23.2294 37.845 23.2119 38.4494 23.2591C38.625 22.4507 38.9235 21.6739 39.3344 20.956C40.2829 19.3034 42.2984 17.2333 46.4865 16.744C46.6493 16.7235 46.8145 16.7355 46.9727 16.7793C47.1308 16.823 47.2787 16.8977 47.4078 16.999C47.5369 17.1002 47.6447 17.2261 47.7249 17.3693C47.805 17.5124 47.856 17.67 47.8749 17.833C47.8938 17.996 47.8802 18.1611 47.8349 18.3189C47.7897 18.4766 47.7135 18.6237 47.611 18.7518C47.5085 18.88 47.3816 18.9865 47.2377 19.0653C47.0938 19.1441 46.9357 19.1936 46.7725 19.2109C44.2801 19.5005 42.5194 20.4734 41.5392 22.1026C41.4643 22.2289 41.3957 22.3548 41.3343 22.4785C41.5787 22.413 41.8361 22.3511 42.106 22.2986C43.2889 22.0441 44.5133 22.0538 45.692 22.327C46.8706 22.6001 47.9745 23.13 48.9248 23.8789C49.1838 24.0823 49.3515 24.3803 49.3908 24.7074C49.4302 25.0344 49.338 25.3637 49.1346 25.6227C48.9312 25.8818 48.6332 26.0494 48.3061 26.0888C47.9791 26.1281 47.6498 26.036 47.3908 25.8325C45.1829 24.0989 42.7368 24.5627 41.3328 25.0744C42.1669 26.5026 42.8709 28.0029 43.4362 29.5573C44.7274 32.8907 45.0923 36.5113 44.4923 40.0353C45.6145 39.6852 46.7858 39.5179 47.9612 39.5397C48.2907 39.5397 48.6067 39.6706 48.8396 39.9036C49.0726 40.1366 49.2035 40.4526 49.2035 40.782C49.2035 41.1115 49.0726 41.4275 48.8396 41.6605C48.6067 41.8934 48.2907 42.0243 47.9612 42.0243C46.6056 41.9872 45.2613 42.2802 44.0441 42.8781C42.5145 43.6109 40.834 43.9732 39.1384 43.9358C37.4435 43.9734 35.7635 43.611 34.2348 42.8781C33.0169 42.2808 31.6721 41.9883 30.3161 42.0259C28.9604 41.988 27.6158 42.2805 26.3984 42.8781C24.8688 43.6108 23.1883 43.9732 21.4927 43.9358C19.7973 43.9732 18.1169 43.6109 16.5875 42.8781C15.3697 42.2804 14.0248 41.9879 12.6688 42.0259C11.3129 41.9878 9.96817 42.2803 8.75061 42.8781C7.22018 43.6104 5.53905 43.9727 3.84285 43.9358C3.67768 43.9392 3.51349 43.9096 3.35991 43.8487C3.20632 43.7879 3.06643 43.6969 2.94842 43.5813C2.83041 43.4657 2.73666 43.3277 2.67265 43.1754C2.60865 43.0231 2.57568 42.8595 2.57568 42.6943C2.57568 42.5291 2.60865 42.3656 2.67265 42.2133C2.73666 42.061 2.83041 41.923 2.94842 41.8073C3.06643 41.6917 3.20632 41.6008 3.35991 41.5399C3.51349 41.4791 3.67768 41.4494 3.84285 41.4528V41.4528Z" fill="#2FB423"/>
</svg>
